{"accessors" : [{"bufferView" : 0, "byteOffset" : 0, "componentType" : 5125, "count" : 51615387, "type" : "SCALAR", "max" : [51615386], "min" : [0]}, {"bufferView" : 1, "byteOffset" : 0, "componentType" : 5126, "count" : 51615387, "type" : "VEC3", "max" : [7744.625, 4691, 3795], "min" : [-5100.5, -87, -13544], "name" : "POSITION"}, {"bufferView" : 1, "byteOffset" : 12, "componentType" : 5126, "count" : 51615387, "type" : "VEC3", "max" : [1, 1, 1], "min" : [0, 0, 0], "name" : "COLOR_0"}, {"bufferView" : 1, "byteOffset" : 24, "componentType" : 5126, "count" : 51615387, "type" : "VEC2", "max" : [0, -0], "min" : [0, -0], "name" : "TEXCOORD_0"}], "asset" : {"generator" : "Aspose.3D 23.2", "version" : "2.0"}, "buffers" : [{"uri" : "buffer.bin", "byteLength" : 1858153940}], "bufferViews" : [{"buffer" : 0, "byteOffset" : 0, "byteLength" : 206461548, "target" : 34963}, {"buffer" : 0, "byteOffset" : 206461552, "byteLength" : 1651692384, "byteStride" : 32, "target" : 34962}], "meshes" : [{"primitives" : [{"attributes" : {"POSITION" : 1, "COLOR_0" : 2, "TEXCOORD_0" : 3}, "indices" : 0, "mode" : 4}], "name" : ""}], "nodes" : [{"mesh" : 0, "name" : "model"}], "scene" : 0, "scenes" : [{"nodes" : [0]}]}